<?xml version="1.0" encoding="UTF-8" standalone="no" ?>
<!DOCTYPE svg PUBLIC "-//W3C//DTD SVG 1.1//EN" "http://www.w3.org/Graphics/SVG/1.1/DTD/svg11.dtd">
<svg xmlns="http://www.w3.org/2000/svg" xmlns:xlink="http://www.w3.org/1999/xlink" version="1.1" width="1080" height="1080" viewBox="0 0 1080 1080" xml:space="preserve">
<desc>Created with Fabric.js 5.2.4</desc>
<defs>
</defs>
<g transform="matrix(1 0 0 1 540 540)" id="6a661895-2f16-4703-9c95-429256f8f6da"  >
<rect style="stroke: none; stroke-width: 1; stroke-dasharray: none; stroke-linecap: butt; stroke-dashoffset: 0; stroke-linejoin: miter; stroke-miterlimit: 4; fill: rgb(255,255,255); fill-rule: nonzero; opacity: 1; visibility: hidden;" vector-effect="non-scaling-stroke"  x="-540" y="-540" rx="0" ry="0" width="1080" height="1080" />
</g>
<g transform="matrix(1 0 0 1 540 540)" id="3b1e33ee-351c-472f-a8d7-b481257019ec"  >
</g>
<g transform="matrix(3.18 0 0 3.18 540 540)"  >
<rect style="stroke: none; stroke-width: 2; stroke-dasharray: none; stroke-linecap: butt; stroke-dashoffset: 0; stroke-linejoin: miter; stroke-miterlimit: 4; fill: rgb(0,0,0); fill-opacity: 0; fill-rule: nonzero; opacity: 0.55;" vector-effect="non-scaling-stroke"  x="-56.25" y="-63.46036688553443" rx="0" ry="0" width="112.5" height="126.92073377106885" />
</g>
<g transform="matrix(3.18 0 0 3.18 540 495.96)" id="图层_1"  >
<path style="stroke: none; stroke-width: 1; stroke-dasharray: none; stroke-linecap: butt; stroke-dashoffset: 0; stroke-linejoin: miter; stroke-miterlimit: 4; fill: rgb(0,72,131); fill-rule: evenodd; opacity: 0.55;" vector-effect="non-scaling-stroke"  transform=" translate(-44.88, -50.41)" d="M 85.06 56.95 L 12.24 99 C 8.63 101.07 4.02 99.83 1.950000000000001 96.22 C 1.270000000000001 95.03 0.9500000000000011 93.74 0.9500000000000011 92.46 L 0.92 92.46 L 0.92 67.02 L 13.209999999999999 66.95 L 13.209999999999999 84.21000000000001 L 71.89 50.330000000000005 L 13.21 16.46 L 13.21 33.75 L 0.92 33.82 L 0.92 8.38 C 0.92 4.200000000000001 4.3100000000000005 0.8100000000000005 8.49 0.8100000000000005 C 10.120000000000001 0.8100000000000005 11.64 1.3300000000000005 12.870000000000001 2.2100000000000004 L 85.06 43.89 C 88.67 45.96 89.91 50.57 87.84 54.18 C 87.15 55.37 86.18 56.31 85.06 56.95 z" stroke-linecap="round" />
</g>
<g transform="matrix(3.18 0 0 3.18 485.71 490.34)" id="图层_1"  >
<polygon style="stroke: none; stroke-width: 1; stroke-dasharray: none; stroke-linecap: butt; stroke-dashoffset: 0; stroke-linejoin: miter; stroke-miterlimit: 4; fill: rgb(6,145,202); fill-rule: evenodd; opacity: 0.55;" vector-effect="non-scaling-stroke"  points="-29.82,11.02 -11.85,10.92 -11.85,24.05 29.82,-0.01 -11.85,-24.05 -11.85,-10.97 -29.82,-10.88 " />
</g>
<g transform="matrix(3.18 0 0 3.18 540 521.4)"  >
<path style="stroke: none; stroke-width: 1; stroke-dasharray: none; stroke-linecap: butt; stroke-dashoffset: 0; stroke-linejoin: miter; stroke-miterlimit: 4; fill: rgb(0,0,0); fill-rule: nonzero; opacity: 1;" vector-effect="non-scaling-stroke"  transform=" translate(-89.89, 19.69)" d="M 30.03 -22.22 C 30.03 -30.66 27.09 -34.38 18.7 -34.38 L 3.85 -34.38 L 3.85 0 L 12.04 0 L 12.04 -11.05 L 17.49 -11.05 L 22.71 0 L 31.63 0 L 25.74 -12.32 C 28.8 -14 30.03 -17.36 30.03 -22.22 Z M 21.45 -25.3 L 21.45 -19.52 C 21.45 -17.61 20.51 -17.21 18.48 -17.21 L 12.04 -17.21 L 12.04 -27.61 L 18.48 -27.61 C 20.51 -27.61 21.45 -27.21 21.45 -25.3 Z M 35.59 -13.75 C 35.59 -10.12 36.01 -7.27 36.85 -5.2 C 38.63 -0.82 42.49 0.66 48.84 0.66 C 52.14 0.66 54.74 0.2 56.65 -0.71 C 60.86 -2.74 62.04 -7.14 62.04 -13.75 C 62.04 -17.42 61.62 -20.29 60.77 -22.36 C 58.99 -26.74 55.19 -28.16 48.84 -28.16 C 45.5 -28.16 42.88 -27.7 40.98 -26.79 C 36.76 -24.76 35.59 -20.36 35.59 -13.75 Z M 46.75 -21.84 L 53.35 -21.84 L 53.35 -7.09 C 53.35 -5.78 52.5 -5.67 50.98 -5.67 L 44.33 -5.67 L 44.33 -20.41 C 44.33 -21.72 45.24 -21.84 46.75 -21.84 Z M 67.04 -13.75 C 67.04 -10.01 67.4 -7.09 68.12 -5 C 69.56 -0.77 72.57 0.82 78.26 0.82 C 82.57 0.82 85.3 -0.05 87.12 -2.48 L 88.71 0 L 92.67 0 L 92.67 -36.91 L 84.48 -36.19 L 84.48 -27.06 C 82.87 -27.79 80.61 -28.16 77.71 -28.16 C 68.82 -28.16 67.04 -22.93 67.04 -13.75 Z M 82.17 -5.5 L 75.79 -5.5 L 75.79 -20.41 C 75.79 -21.72 76.64 -21.84 78.16 -21.84 L 84.48 -21.84 L 84.48 -6.99 C 84.48 -5.61 83.73 -5.5 82.17 -5.5 Z M 98.78 0 Z M 102.08 -27.5 L 98.78 -27.5 L 98.78 -22.11 L 102.08 -22.11 L 102.08 0 L 110.27 0 L 110.27 -22.11 L 114.12 -22.11 L 114.12 -27.5 L 110.27 -27.5 L 110.27 -31.79 L 115.5 -31.3 L 115.94 -36.58 C 114 -36.94 112.14 -37.13 110.38 -37.13 C 103.84 -37.13 102.45 -33.86 102.08 -27.5 Z M 124.85 0.66 C 126.32 0.66 127.93 0.42 129.69 -0.06 L 130.07 -5.61 C 129.19 -5.68 128.33 -5.79 127.49 -5.94 L 127.49 -36.58 L 119.29 -35.75 L 119.29 -4.34 C 119.29 -0.76 121.18 0.66 124.85 0.66 Z M 134.91 0 Z M 143.55 0 L 143.55 -27.72 L 135.35 -26.62 L 135.35 0 Z M 139.53 -31.07 C 143.08 -31.07 144.04 -32.04 144.04 -35.59 C 144.04 -39.14 143.05 -40.2 139.53 -40.2 C 135.92 -40.2 134.91 -39.2 134.91 -35.59 C 134.91 -32.02 135.95 -31.07 139.53 -31.07 Z M 166.98 0 L 175.94 0 L 166.92 -13.37 L 175.83 -27.5 L 167.09 -27.5 L 162.52 -19.8 L 157.35 -27.5 L 148.39 -27.5 L 157.3 -14.3 L 148.28 0 L 157.02 0 L 161.7 -7.87 Z" stroke-linecap="round" />
</g>
<g transform="matrix(3.18 0 0 3.18 540 609.29)"  >
<path style="stroke: none; stroke-width: 1; stroke-dasharray: none; stroke-linecap: butt; stroke-dashoffset: 0; stroke-linejoin: miter; stroke-miterlimit: 4; fill: rgb(0,0,0); fill-rule: nonzero; opacity: 1;" vector-effect="non-scaling-stroke"  transform=" translate(-86.41, 3.58)" d="M 0.57 -3.57 C 0.57 -2.99 0.65 -2.47 0.81 -2.01 C 0.97 -1.55 1.19 -1.16 1.47 -0.84 C 1.75 -0.53 2.09 -0.29 2.48 -0.12 C 2.88 0.05 3.31 0.13 3.78 0.13 C 4.26 0.13 4.69 0.05 5.07 -0.1 C 5.45 -0.26 5.76 -0.46 5.99 -0.7 L 5.99 -3.71 L 3.65 -3.71 L 3.65 -2.95 L 5.17 -2.95 L 5.17 -1.09 C 5.02 -0.96 4.83 -0.86 4.6 -0.78 C 4.38 -0.7 4.13 -0.66 3.88 -0.66 C 3.49 -0.66 3.16 -0.73 2.86 -0.87 C 2.57 -1.01 2.32 -1.21 2.12 -1.46 C 1.92 -1.71 1.77 -2.02 1.66 -2.38 C 1.56 -2.74 1.5 -3.15 1.5 -3.6 C 1.5 -4.04 1.56 -4.44 1.67 -4.8 C 1.79 -5.15 1.94 -5.45 2.15 -5.71 C 2.35 -5.96 2.6 -6.15 2.89 -6.28 C 3.18 -6.42 3.51 -6.48 3.87 -6.48 C 4.23 -6.48 4.53 -6.42 4.77 -6.29 C 5 -6.17 5.21 -6.01 5.39 -5.82 L 5.91 -6.4 C 5.7 -6.62 5.43 -6.82 5.1 -7 C 4.76 -7.19 4.35 -7.28 3.86 -7.28 C 3.38 -7.28 2.94 -7.19 2.54 -7.02 C 2.14 -6.85 1.79 -6.61 1.5 -6.29 C 1.2 -5.97 0.98 -5.58 0.81 -5.12 C 0.65 -4.66 0.57 -4.15 0.57 -3.57 Z M 7.49 -7.15 L 7.49 0 L 11.72 0 L 11.72 -0.77 L 8.4 -0.77 L 8.4 -3.37 L 11.11 -3.37 L 11.11 -4.14 L 8.4 -4.14 L 8.4 -6.39 L 11.61 -6.39 L 11.61 -7.15 Z M 14.51 -6.39 L 14.51 0 L 15.42 0 L 15.42 -6.39 L 17.58 -6.39 L 17.58 -7.15 L 12.35 -7.15 L 12.35 -6.39 Z M 23.68 -2.91 L 21.53 -2.91 L 21.87 -4 C 22 -4.4 22.13 -4.8 22.24 -5.19 C 22.36 -5.59 22.47 -5.99 22.58 -6.41 L 22.62 -6.41 C 22.74 -5.99 22.86 -5.59 22.97 -5.19 C 23.09 -4.8 23.21 -4.4 23.34 -4 Z M 23.91 -2.18 L 24.59 0 L 25.56 0 L 23.14 -7.15 L 22.11 -7.15 L 19.69 0 L 20.62 0 L 21.31 -2.18 Z M 26.36 -7.15 L 26.36 0 L 30.39 0 L 30.39 -0.77 L 27.26 -0.77 L 27.26 -7.15 Z M 31.44 -7.15 L 31.44 0 L 35.47 0 L 35.47 -0.77 L 32.35 -0.77 L 32.35 -7.15 Z M 38.51 -7.15 L 38.51 0 L 39.35 0 L 39.35 -3.93 C 39.35 -4.25 39.34 -4.61 39.31 -4.99 C 39.28 -5.38 39.26 -5.73 39.23 -6.05 L 39.28 -6.05 L 39.84 -4.46 L 41.23 -0.72 L 41.74 -0.72 L 43.11 -4.46 L 43.69 -6.05 L 43.73 -6.05 C 43.71 -5.73 43.68 -5.38 43.65 -4.99 C 43.63 -4.61 43.61 -4.25 43.61 -3.93 L 43.61 0 L 44.48 0 L 44.48 -7.15 L 43.41 -7.15 L 42.03 -3.31 L 41.53 -1.85 L 41.49 -1.85 L 40.97 -3.31 L 39.58 -7.15 Z M 48.86 0.13 C 49.31 0.13 49.73 0.04 50.1 -0.13 C 50.47 -0.31 50.8 -0.55 51.07 -0.88 C 51.34 -1.2 51.55 -1.59 51.7 -2.05 C 51.85 -2.52 51.92 -3.03 51.92 -3.61 C 51.92 -4.17 51.85 -4.68 51.7 -5.14 C 51.55 -5.59 51.34 -5.98 51.07 -6.29 C 50.8 -6.61 50.47 -6.85 50.1 -7.02 C 49.73 -7.19 49.31 -7.28 48.86 -7.28 C 48.41 -7.28 48 -7.2 47.63 -7.03 C 47.25 -6.86 46.93 -6.62 46.66 -6.3 C 46.39 -5.99 46.18 -5.6 46.03 -5.15 C 45.89 -4.7 45.81 -4.18 45.81 -3.61 C 45.81 -3.03 45.89 -2.52 46.03 -2.05 C 46.18 -1.59 46.39 -1.2 46.66 -0.88 C 46.93 -0.55 47.25 -0.31 47.63 -0.13 C 48 0.04 48.41 0.13 48.86 0.13 Z M 48.86 -0.66 C 48.54 -0.66 48.25 -0.73 48 -0.87 C 47.74 -1.01 47.52 -1.21 47.33 -1.47 C 47.15 -1.72 47 -2.03 46.9 -2.39 C 46.8 -2.75 46.75 -3.16 46.75 -3.61 C 46.75 -4.05 46.8 -4.45 46.9 -4.81 C 47 -5.16 47.15 -5.46 47.33 -5.71 C 47.52 -5.96 47.74 -6.15 48 -6.28 C 48.25 -6.42 48.54 -6.48 48.86 -6.48 C 49.18 -6.48 49.47 -6.42 49.73 -6.28 C 49.99 -6.15 50.21 -5.96 50.39 -5.71 C 50.58 -5.46 50.72 -5.16 50.82 -4.81 C 50.93 -4.45 50.98 -4.05 50.98 -3.61 C 50.98 -3.16 50.93 -2.75 50.82 -2.39 C 50.72 -2.03 50.58 -1.72 50.39 -1.47 C 50.21 -1.21 49.99 -1.01 49.73 -0.87 C 49.47 -0.73 49.18 -0.66 48.86 -0.66 Z M 52.16 -7.15 L 54.45 0 L 55.5 0 L 57.77 -7.15 L 56.85 -7.15 L 55.7 -3.29 C 55.58 -2.86 55.46 -2.47 55.36 -2.1 C 55.26 -1.74 55.15 -1.35 55.01 -0.93 L 54.97 -0.93 C 54.83 -1.35 54.71 -1.74 54.62 -2.1 C 54.52 -2.47 54.4 -2.86 54.27 -3.29 L 53.13 -7.15 Z M 58.54 -7.15 L 58.54 0 L 59.44 0 L 59.44 -7.15 Z M 61.19 -7.15 L 61.19 0 L 65.42 0 L 65.42 -0.77 L 62.1 -0.77 L 62.1 -3.37 L 64.81 -3.37 L 64.81 -4.14 L 62.1 -4.14 L 62.1 -6.39 L 65.31 -6.39 L 65.31 -7.15 Z M 66.75 -1.56 L 66.2 -0.93 C 66.51 -0.6 66.88 -0.34 67.31 -0.15 C 67.74 0.04 68.21 0.13 68.71 0.13 C 69.09 0.13 69.42 0.08 69.72 -0.03 C 70.02 -0.13 70.27 -0.28 70.48 -0.46 C 70.7 -0.65 70.86 -0.86 70.97 -1.11 C 71.08 -1.36 71.14 -1.62 71.14 -1.91 C 71.14 -2.17 71.1 -2.4 71.02 -2.6 C 70.95 -2.8 70.84 -2.97 70.71 -3.12 C 70.58 -3.27 70.43 -3.4 70.24 -3.51 C 70.06 -3.63 69.87 -3.73 69.67 -3.81 L 68.65 -4.25 C 68.51 -4.31 68.37 -4.37 68.23 -4.44 C 68.09 -4.51 67.96 -4.59 67.85 -4.68 C 67.73 -4.77 67.64 -4.88 67.57 -5 C 67.5 -5.12 67.47 -5.26 67.47 -5.44 C 67.47 -5.77 67.59 -6.02 67.83 -6.21 C 68.07 -6.39 68.4 -6.48 68.8 -6.48 C 69.13 -6.48 69.43 -6.42 69.69 -6.3 C 69.96 -6.18 70.2 -6.02 70.42 -5.81 L 70.91 -6.4 C 70.66 -6.66 70.35 -6.87 69.98 -7.03 C 69.62 -7.2 69.22 -7.28 68.8 -7.28 C 68.47 -7.28 68.17 -7.23 67.9 -7.14 C 67.62 -7.04 67.39 -6.91 67.19 -6.74 C 66.99 -6.57 66.83 -6.37 66.72 -6.14 C 66.61 -5.9 66.55 -5.65 66.55 -5.38 C 66.55 -5.12 66.59 -4.89 66.68 -4.69 C 66.77 -4.49 66.88 -4.32 67.02 -4.17 C 67.16 -4.03 67.31 -3.91 67.49 -3.8 C 67.66 -3.7 67.83 -3.61 68 -3.54 L 69.02 -3.1 C 69.19 -3.02 69.35 -2.94 69.49 -2.87 C 69.64 -2.79 69.76 -2.71 69.87 -2.62 C 69.97 -2.53 70.06 -2.42 70.12 -2.29 C 70.18 -2.17 70.21 -2.01 70.21 -1.83 C 70.21 -1.48 70.08 -1.2 69.82 -0.99 C 69.56 -0.77 69.19 -0.66 68.72 -0.66 C 68.35 -0.66 67.99 -0.75 67.65 -0.91 C 67.3 -1.07 67 -1.29 66.75 -1.56 Z M 74.32 -7.15 L 74.32 0 L 76.15 0 C 76.69 0 77.17 -0.08 77.58 -0.25 C 77.99 -0.41 78.34 -0.64 78.63 -0.95 C 78.91 -1.26 79.12 -1.64 79.27 -2.09 C 79.41 -2.53 79.49 -3.04 79.49 -3.61 C 79.49 -4.75 79.2 -5.62 78.63 -6.23 C 78.05 -6.84 77.21 -7.15 76.11 -7.15 Z M 76.04 -0.74 L 75.23 -0.74 L 75.23 -6.41 L 76.04 -6.41 C 76.88 -6.41 77.5 -6.17 77.92 -5.69 C 78.34 -5.21 78.55 -4.52 78.55 -3.61 C 78.55 -2.7 78.34 -1.99 77.92 -1.49 C 77.5 -0.99 76.88 -0.74 76.04 -0.74 Z M 80.81 -7.15 L 80.81 0 L 85.04 0 L 85.04 -0.77 L 81.72 -0.77 L 81.72 -3.37 L 84.43 -3.37 L 84.43 -4.14 L 81.72 -4.14 L 81.72 -6.39 L 84.93 -6.39 L 84.93 -7.15 Z M 87.82 -6.39 L 87.82 0 L 88.74 0 L 88.74 -6.39 L 90.9 -6.39 L 90.9 -7.15 L 85.67 -7.15 L 85.67 -6.39 Z M 94.58 -2.91 L 92.43 -2.91 L 92.77 -4 C 92.9 -4.4 93.02 -4.8 93.14 -5.19 C 93.25 -5.59 93.37 -5.99 93.47 -6.41 L 93.52 -6.41 C 93.63 -5.99 93.75 -5.59 93.87 -5.19 C 93.98 -4.8 94.11 -4.4 94.24 -4 Z M 94.8 -2.18 L 95.48 0 L 96.45 0 L 94.03 -7.15 L 93.01 -7.15 L 90.59 0 L 91.51 0 L 92.2 -2.18 Z M 97.25 -7.15 L 97.25 0 L 98.16 0 L 98.16 -7.15 Z M 99.9 -7.15 L 99.9 0 L 103.94 0 L 103.94 -0.77 L 100.81 -0.77 L 100.81 -7.15 Z M 104.77 -1.56 L 104.23 -0.93 C 104.54 -0.6 104.91 -0.34 105.34 -0.15 C 105.77 0.04 106.23 0.13 106.73 0.13 C 107.11 0.13 107.45 0.08 107.75 -0.03 C 108.04 -0.13 108.3 -0.28 108.51 -0.46 C 108.72 -0.65 108.88 -0.86 108.99 -1.11 C 109.11 -1.36 109.16 -1.62 109.16 -1.91 C 109.16 -2.17 109.12 -2.4 109.05 -2.6 C 108.97 -2.8 108.87 -2.97 108.74 -3.12 C 108.61 -3.27 108.45 -3.4 108.27 -3.51 C 108.09 -3.63 107.89 -3.73 107.69 -3.81 L 106.68 -4.25 C 106.53 -4.31 106.39 -4.37 106.25 -4.44 C 106.11 -4.51 105.99 -4.59 105.87 -4.68 C 105.75 -4.77 105.66 -4.88 105.59 -5 C 105.52 -5.12 105.49 -5.26 105.49 -5.44 C 105.49 -5.77 105.61 -6.02 105.85 -6.21 C 106.1 -6.39 106.42 -6.48 106.82 -6.48 C 107.15 -6.48 107.45 -6.42 107.72 -6.3 C 107.98 -6.18 108.23 -6.02 108.44 -5.81 L 108.93 -6.4 C 108.68 -6.66 108.37 -6.87 108.01 -7.03 C 107.64 -7.2 107.25 -7.28 106.82 -7.28 C 106.49 -7.28 106.19 -7.23 105.92 -7.14 C 105.65 -7.04 105.41 -6.91 105.21 -6.74 C 105.01 -6.57 104.86 -6.37 104.74 -6.14 C 104.63 -5.9 104.57 -5.65 104.57 -5.38 C 104.57 -5.12 104.62 -4.89 104.7 -4.69 C 104.79 -4.49 104.9 -4.32 105.04 -4.17 C 105.18 -4.03 105.34 -3.91 105.51 -3.8 C 105.69 -3.7 105.86 -3.61 106.02 -3.54 L 107.05 -3.1 C 107.22 -3.02 107.37 -2.94 107.52 -2.87 C 107.66 -2.79 107.79 -2.71 107.89 -2.62 C 108 -2.53 108.08 -2.42 108.14 -2.29 C 108.21 -2.17 108.24 -2.01 108.24 -1.83 C 108.24 -1.48 108.11 -1.2 107.84 -0.99 C 107.58 -0.77 107.22 -0.66 106.74 -0.66 C 106.37 -0.66 106.01 -0.75 105.67 -0.91 C 105.32 -1.07 105.02 -1.29 104.77 -1.56 Z M 112.34 -7.15 L 112.34 0 L 113.25 0 L 113.25 -7.15 Z M 115 -7.15 L 115 0 L 115.86 0 L 115.86 -3.74 C 115.86 -4.12 115.85 -4.49 115.82 -4.87 C 115.8 -5.24 115.77 -5.61 115.74 -5.97 L 115.78 -5.97 L 116.56 -4.5 L 119.15 0 L 120.09 0 L 120.09 -7.15 L 119.23 -7.15 L 119.23 -3.45 C 119.23 -3.08 119.24 -2.69 119.26 -2.31 C 119.29 -1.92 119.31 -1.54 119.34 -1.18 L 119.29 -1.18 L 118.52 -2.66 L 115.94 -7.15 Z M 126.46 0.13 C 126.91 0.13 127.33 0.04 127.7 -0.13 C 128.07 -0.31 128.4 -0.55 128.67 -0.88 C 128.94 -1.2 129.15 -1.59 129.3 -2.05 C 129.45 -2.52 129.53 -3.03 129.53 -3.61 C 129.53 -4.17 129.45 -4.68 129.3 -5.14 C 129.15 -5.59 128.94 -5.98 128.67 -6.29 C 128.4 -6.61 128.07 -6.85 127.7 -7.02 C 127.33 -7.19 126.91 -7.28 126.46 -7.28 C 126.01 -7.28 125.6 -7.2 125.23 -7.03 C 124.85 -6.86 124.53 -6.62 124.26 -6.3 C 123.99 -5.99 123.78 -5.6 123.64 -5.15 C 123.49 -4.7 123.41 -4.18 123.41 -3.61 C 123.41 -3.03 123.49 -2.52 123.64 -2.05 C 123.78 -1.59 123.99 -1.2 124.26 -0.88 C 124.53 -0.55 124.85 -0.31 125.23 -0.13 C 125.6 0.04 126.01 0.13 126.46 0.13 Z M 126.46 -0.66 C 126.14 -0.66 125.85 -0.73 125.6 -0.87 C 125.34 -1.01 125.12 -1.21 124.93 -1.47 C 124.75 -1.72 124.6 -2.03 124.5 -2.39 C 124.4 -2.75 124.35 -3.16 124.35 -3.61 C 124.35 -4.05 124.4 -4.45 124.5 -4.81 C 124.6 -5.16 124.75 -5.46 124.93 -5.71 C 125.12 -5.96 125.34 -6.15 125.6 -6.28 C 125.85 -6.42 126.14 -6.48 126.46 -6.48 C 126.78 -6.48 127.07 -6.42 127.33 -6.28 C 127.59 -6.15 127.81 -5.96 127.99 -5.71 C 128.18 -5.46 128.32 -5.16 128.42 -4.81 C 128.53 -4.45 128.58 -4.05 128.58 -3.61 C 128.58 -3.16 128.53 -2.75 128.42 -2.39 C 128.32 -2.03 128.18 -1.72 127.99 -1.47 C 127.81 -1.21 127.59 -1.01 127.33 -0.87 C 127.07 -0.73 126.78 -0.66 126.46 -0.66 Z M 130.85 -7.15 L 130.85 0 L 131.71 0 L 131.71 -3.74 C 131.71 -4.12 131.7 -4.49 131.67 -4.87 C 131.65 -5.24 131.62 -5.61 131.59 -5.97 L 131.63 -5.97 L 132.41 -4.5 L 135 0 L 135.94 0 L 135.94 -7.15 L 135.08 -7.15 L 135.08 -3.45 C 135.08 -3.08 135.09 -2.69 135.12 -2.31 C 135.14 -1.92 135.17 -1.54 135.19 -1.18 L 135.14 -1.18 L 134.37 -2.66 L 131.79 -7.15 Z M 137.69 -7.15 L 137.69 0 L 141.92 0 L 141.92 -0.77 L 138.59 -0.77 L 138.59 -3.37 L 141.31 -3.37 L 141.31 -4.14 L 138.59 -4.14 L 138.59 -6.39 L 141.81 -6.39 L 141.81 -7.15 Z M 145.21 -7.15 L 145.21 0 L 146.11 0 L 146.11 -2.83 L 147.4 -2.83 C 147.79 -2.83 148.15 -2.88 148.47 -2.97 C 148.8 -3.06 149.07 -3.2 149.31 -3.38 C 149.54 -3.56 149.72 -3.79 149.85 -4.07 C 149.97 -4.34 150.04 -4.67 150.04 -5.05 C 150.04 -5.44 149.97 -5.77 149.85 -6.04 C 149.72 -6.31 149.54 -6.52 149.31 -6.69 C 149.08 -6.85 148.8 -6.97 148.48 -7.04 C 148.15 -7.11 147.79 -7.15 147.4 -7.15 Z M 147.29 -3.57 L 146.11 -3.57 L 146.11 -6.42 L 147.29 -6.42 C 147.91 -6.42 148.37 -6.32 148.67 -6.12 C 148.98 -5.92 149.13 -5.56 149.13 -5.05 C 149.13 -4.54 148.98 -4.17 148.68 -3.93 C 148.38 -3.69 147.91 -3.57 147.29 -3.57 Z M 151.27 -7.15 L 151.27 0 L 155.31 0 L 155.31 -0.77 L 152.18 -0.77 L 152.18 -7.15 Z M 159.43 -2.91 L 157.28 -2.91 L 157.62 -4 C 157.75 -4.4 157.88 -4.8 157.99 -5.19 C 158.11 -5.59 158.22 -5.99 158.33 -6.41 L 158.37 -6.41 C 158.49 -5.99 158.61 -5.59 158.72 -5.19 C 158.84 -4.8 158.96 -4.4 159.09 -4 Z M 159.66 -2.18 L 160.34 0 L 161.31 0 L 158.89 -7.15 L 157.86 -7.15 L 155.44 0 L 156.37 0 L 157.05 -2.18 Z M 161.58 -3.57 C 161.58 -2.99 161.66 -2.47 161.82 -2.01 C 161.97 -1.55 162.19 -1.16 162.47 -0.84 C 162.75 -0.53 163.08 -0.29 163.46 -0.12 C 163.84 0.05 164.26 0.13 164.71 0.13 C 165.17 0.13 165.58 0.04 165.93 -0.14 C 166.29 -0.32 166.61 -0.58 166.89 -0.9 L 166.38 -1.46 C 166.15 -1.21 165.9 -1.01 165.64 -0.87 C 165.38 -0.73 165.08 -0.66 164.73 -0.66 C 164.39 -0.66 164.08 -0.73 163.81 -0.87 C 163.54 -1.01 163.31 -1.21 163.12 -1.46 C 162.93 -1.71 162.78 -2.02 162.68 -2.38 C 162.57 -2.74 162.52 -3.15 162.52 -3.6 C 162.52 -4.04 162.57 -4.44 162.68 -4.8 C 162.79 -5.15 162.95 -5.45 163.14 -5.71 C 163.34 -5.96 163.57 -6.15 163.85 -6.28 C 164.13 -6.42 164.43 -6.48 164.78 -6.48 C 165.08 -6.48 165.35 -6.42 165.58 -6.3 C 165.81 -6.18 166.01 -6.02 166.2 -5.82 L 166.72 -6.4 C 166.51 -6.63 166.24 -6.84 165.91 -7.01 C 165.58 -7.19 165.2 -7.28 164.77 -7.28 C 164.31 -7.28 163.88 -7.19 163.5 -7.02 C 163.11 -6.85 162.77 -6.61 162.49 -6.29 C 162.2 -5.97 161.98 -5.58 161.82 -5.12 C 161.66 -4.66 161.58 -4.15 161.58 -3.57 Z M 168.01 -7.15 L 168.01 0 L 172.24 0 L 172.24 -0.77 L 168.91 -0.77 L 168.91 -3.37 L 171.63 -3.37 L 171.63 -4.14 L 168.91 -4.14 L 168.91 -6.39 L 172.13 -6.39 L 172.13 -7.15 Z" stroke-linecap="round" />
</g>
</svg>